<svg height="16" viewBox="0 0 16 16" width="16" xmlns="http://www.w3.org/2000/svg"><path d="m4.8827366 4.6314347c-.4501822-.0018264-.8811136.2650422-1.0710482.7179637l-.8378143 1.9282672c-.2532468.584415.0197852 1.2663861.6042 1.5196327.584415.2532466 1.2660061-.0388095 1.5192524-.6232245l.8572192-1.9286475c.2532463-.584415-.0193289-1.2663863-.6232245-1.5196329-.1461041-.0633114-.298524-.09375-.4485846-.0943587zm6.2512684 0c-.148539.0006087-.299437.0310473-.445541.0943587-.584415.2532466-.8768512.9546984-.623605 1.5196329l.857219 1.9286475c.233766.584415.895952.8764711 1.499848.6232245.584415-.2532466.876851-.9352177.623605-1.5196327l-.837815-1.9282672c-.204545-.4529215-.628095-.7197901-1.073711-.7179637zm-4.7118509 1.4773997c-.0194807.0974024-.0584416.1951097-.0974025.3119926l-.8572192 1.9282672c-.3506488.7792198-1.2661583 1.1495784-2.064859.8184103-.7792196-.3506493-1.1494264-1.2080215-.8572187-1.9872415-.3896103.4675319-.4676085 1.1691362-.1754008 1.9678367.5259733 1.4610373 1.8702834 1.7530183 3.1754767 1.2270443l.7986253-.311612c1.090908-.4090906 1.5973265-1.4222312 1.2856381-2.4936586-.2142854-.7207787-.7595884-1.071429-1.2076399-1.461039zm3.1750965.0197848c-.4870123.3701295-1.012759.7204755-1.2270443 1.4412542-.3116884 1.0714274.1947301 2.0844921 1.2856378 2.5130626l.7986249.311613c1.324674.506493 2.649504.233993 3.175478-1.2270445.292207-.7987007.194728-1.4999246-.175401-1.9674567.292207.77922-.077999 1.6362119-.857219 1.986861-.77922.3311682-1.694806-.03881-2.045455-.8180298l-.8572188-1.9286474c-.0389609-.0974027-.0779223-.1947293-.0974026-.3116124zm4.5391134 1.5584416c.097402.545454.058593 1.071277-.136211 1.5972506-.292208.8181806-.857144 1.3832696-1.558442 1.6170356.331168.292207.740108.447823 1.20764.447823 1.012986 0 1.850649-.837587 1.850649-1.8700535 0-.8571421-.584416-1.5777702-1.363636-1.7920557zm-12.2727277.0194045c-.7792201.2142855-1.3636363.9349136-1.3636363 1.7920555 0 1.0324672.8181828 1.8700542 1.8506495 1.8700542.4675322 0 .8959519-.175097 1.2076399-.447824-.7012982-.253246-1.2467535-.798778-1.5584414-1.6364396-.1948051-.5454541-.2336143-1.0713531-.1362117-1.5778461z" fill="#2e3436" stroke-width=".194805"/></svg>