<svg height="16" viewBox="0 0 16 16" width="16" xmlns="http://www.w3.org/2000/svg"><path d="m4.7792969 2c-.4651879-.0018872-.9111563.2741691-1.1074219.7421875l-.8652344 1.9921875c-.2616881.6038949.0211053 1.3086245.625 1.5703125.6038949.2616882 1.3066719-.0406368 1.5683594-.6445313l.8867188-1.9921874c.2616872-.6038949-.0205062-1.3086246-.6445313-1.5703126-.150974-.0654216-.3078282-.0970272-.4628906-.0976562zm6.4589841 0c-.15349.000629-.309962.0322346-.460937.0976562-.603895.261688-.9062192.9865474-.644532 1.5703126l.886719 1.9921874c.241558.6038945.924803.9062195 1.548828.6445313.603895-.261688.906219-.9664176.644532-1.5703125l-.865235-1.9921875c-.211363-.4680184-.648905-.7440747-1.109375-.7421875zm-4.8691404 1.5273438c-.0201303.1006489-.0593497.2014867-.0996094.3222656l-.8867187 1.9921875c-.3623367.8051934-1.3074893 1.1879101-2.1328125.8457031-.8051928-.3623369-1.1886663-1.2475412-.8867188-2.0527344-.4025968.4831158-.4835882 1.2078805-.1816406 2.0332032.5435053 1.5097376 1.9325512 1.8110845 3.28125 1.2675781l.8261719-.3222657c1.1272705-.4227265 1.6502023-1.4690317 1.328125-2.5761718-.2214276-.744804-.7850602-1.1071691-1.2480469-1.5097656zm3.28125.0195312c-.5032463.3824667-1.0461494.7454304-1.2675781 1.4902344-.2849134.9793892.0918365 1.9093158.9628906 2.4179687h4.0449219c.171016-.208569.31762-.4617042.427734-.7675781.301947-.8253232.200826-1.5500871-.18164-2.0332031.301946.8051932-.081526 1.6903974-.886719 2.0527343-.805193.3422072-1.750944-.0405105-2.113281-.8457031l-.8847659-1.9921875c-.0402592-.1006494-.0814332-.2014865-.1015625-.3222656zm4.6914064 1.6113281c.100649.5636353.05872 1.1068848-.142578 1.6503907-.084805.2374536-.192216.4520815-.31836.6464843h1.816407c.033866-.1433218.052734-.2916518.052734-.4453125 0-.8857128-.60301-1.6301343-1.408203-1.8515625zm-12.6835939.0195313c-.80519323.2214281-1.4082031.9658506-1.4082031 1.8515625 0 1.0668819.8452282 1.9316406 1.9121094 1.9316406.4831161 0 .9259696-.1810729 1.2480468-.4628906-.724674-.2616868-1.2872978-.8238702-1.609375-1.6894531-.2012983-.5636353-.2432273-1.1074838-.1425781-1.6308594z" fill="#2e3436" stroke-width=".201298"/><path class="warning" d="m9.5 8c-.832031 0-1.5.667969-1.5 1.5v5c0 .832031.667969 1.5 1.5 1.5h5c.832031 0 1.5-.667969 1.5-1.5v-5c0-.832031-.667969-1.5-1.5-1.5zm1.5 1h2v2.5s0 .5-.5.5h-1c-.5 0-.5-.5-.5-.5zm.5 4h1c.277344 0 .5.222656.5.5v1c0 .277344-.222656.5-.5.5h-1c-.277344 0-.5-.222656-.5-.5v-1c0-.277344.222656-.5.5-.5zm0 0" fill="#ff7800"/></svg>