<?xml version="1.0" encoding="UTF-8" standalone="no"?>
<svg
   height="16"
   viewBox="0 0 16 16"
   width="16"
   version="1.1"
   id="svg1"
   sodipodi:docname="abm-model-airpod3-symbolic.svg"
   inkscape:version="1.3.2 (091e20ef0f, 2023-11-25)"
   xmlns:inkscape="http://www.inkscape.org/namespaces/inkscape"
   xmlns:sodipodi="http://sodipodi.sourceforge.net/DTD/sodipodi-0.dtd"
   xmlns="http://www.w3.org/2000/svg"
   xmlns:svg="http://www.w3.org/2000/svg">
  <defs
     id="defs1" />
  <sodipodi:namedview
     id="namedview1"
     pagecolor="#ffffff"
     bordercolor="#000000"
     borderopacity="0.25"
     inkscape:showpageshadow="2"
     inkscape:pageopacity="0.0"
     inkscape:pagecheckerboard="0"
     inkscape:deskcolor="#d1d1d1"
     inkscape:zoom="72.8125"
     inkscape:cx="7.993133"
     inkscape:cy="8"
     inkscape:window-width="2560"
     inkscape:window-height="1371"
     inkscape:window-x="0"
     inkscape:window-y="32"
     inkscape:window-maximized="1"
     inkscape:current-layer="svg1" />
  <path
     id="path2"
     d="M 4.8827366,4.6314347 C 4.4325544,4.6296083 4.001623,4.8964769 3.8116884,5.3493984 L 2.9738741,7.2776656 C 2.7206273,7.8620806 2.9936593,8.5440517 3.5780741,8.7972983 4.1624891,9.0505449 4.8440802,8.7584888 5.0973265,8.1740738 L 5.9545457,6.2454263 C 6.207792,5.6610113 5.9352168,4.97904 5.3313212,4.7257934 5.1852171,4.662482 5.0327972,4.6320434 4.8827366,4.6314347 Z M 11.134005,4.6314347 C 10.985466,4.6320434 10.834568,4.662482 10.688464,4.7257934 10.104049,4.97904 9.8116128,5.6804918 10.064859,6.2454263 L 10.922078,8.1740738 C 11.155844,8.7584888 11.81803,9.0505449 12.421926,8.7972983 13.006341,8.5440517 13.298777,7.8620806 13.045531,7.2776656 L 12.207716,5.3493984 C 12.003171,4.8964769 11.579621,4.6296083 11.134005,4.6314347 Z M 6.4221541,6.1088344 C 6.4026734,6.2062368 6.3637125,6.3039441 6.3247516,6.420827 L 5.4675324,8.3490942 C 5.1168836,9.128314 4.2013741,9.4986726 3.4026734,9.1675045 2.6234538,8.8168552 2.253247,7.959483 2.5454547,7.180263 2.1558444,7.6477949 2.0778462,8.3493992 2.3700539,9.1480997 2.8960272,10.609137 4.2403373,10.901118 5.5455306,10.375144 L 6.3441559,10.063532 C 7.4350639,9.6544414 7.9414824,8.6413008 7.629794,7.5698734 7.4155086,6.8490947 6.8702056,6.4984444 6.4221541,6.1088344 Z M 9.5972506,6.1286192 C 9.1102383,6.4987487 8.5844916,6.8490947 8.3702063,7.5698734 8.0585179,8.6413008 8.5649364,9.6543655 9.6558441,10.082936 L 10.454469,10.394549 C 11.779143,10.901042 13.103973,10.628542 13.629947,9.1675045 13.922154,8.3688038 13.824675,7.6675799 13.454546,7.2000478 13.746753,7.9792678 13.376547,8.8362597 12.597327,9.1869088 11.818107,9.518077 10.902521,9.1480988 10.551872,8.368879 L 9.6946532,6.4402316 C 9.6556923,6.3428289 9.6167309,6.2455023 9.5972506,6.1286192 Z M 14.136364,7.6870608 C 14.233766,8.2325148 14.194957,8.7583378 14.000153,9.2843114 13.707945,10.102492 13.143009,10.667581 12.441711,10.901347 12.772879,11.193554 13.181819,11.34917 13.649351,11.34917 14.662337,11.34917 15.5,10.511583 15.5,9.4791165 15.5,8.6219744 14.915584,7.9013463 14.136364,7.6870608 Z M 1.8636363,7.7064653 C 1.0844162,7.9207508 0.5,8.6413789 0.5,9.4985208 0.5,10.530988 1.3181828,11.368575 2.3506495,11.368575 2.8181817,11.368575 3.2466014,11.193478 3.5582894,10.920751 2.8569912,10.667505 2.3115359,10.121973 1.999848,9.2843114 1.8050429,8.7388573 1.7662337,8.2129583 1.8636363,7.7064653 Z"
     style="stroke-width:0.194805;fill:#2e3436;fill-opacity:1" />
</svg>
