<svg height="16" viewBox="0 0 16 16" width="16" xmlns="http://www.w3.org/2000/svg"><g fill="#2e3436"><g><circle cx="5.851777" cy="14.705316" r="1.294684"/><circle cx="9.966578" cy="14.705316" r="1.294684"/></g><path d="m4.7788278 2.0000096c-.4651883-.0018872-.910484.273877-1.1067498.7418959l-.8657414 1.9925427c-.2616884.6038955.0204447 1.308599.62434 1.5702873.6038955.2616885 1.3082063-.0401037 1.5698941-.6439988l.8857935-1.9929357c.2616875-.6038955-.0199733-1.3085992-.643999-1.5702874-.1509742-.0654217-.3084748-.096875-.4635374-.097504zm6.4596442 0c-.15349.000629-.309418.0320823-.460393.097504-.603895.2616882-.906079.9865217-.644391 1.5702874l.885793 1.9929357c.241558.6038951.925817.9056873 1.549843.6439988.603895-.2616883.906079-.9663918.644391-1.5702873l-.865742-1.9925427c-.211363-.4680189-.649031-.7437831-1.109501-.7418959zm-4.8689129 1.5266464c-.0201303.1006491-.060389.2016134-.1006487.3223924l-.8857936 1.9925427c-.3623371.8051942-1.3083636 1.1878979-2.1336876.8456906-.8051936-.3623373-1.1877406-1.2482888-.8857927-2.0534828-.4025973.4831163-.4831954 1.2081074-.1812475 2.0334309.5435058 1.5097392 1.9326262 1.8114532 3.2813264 1.2679462l.8252458-.321999c1.1272716-.422727 1.6505702-1.4696395 1.3284926-2.5767807-.2214278-.7448047-.7849076-1.1071433-1.2478947-1.5097403zm3.2809336.0204443c-.5032468.3824671-1.0465176.7444913-1.2679465 1.489296-.3220776 1.1071412.201221 2.1539747 1.3284926 2.5968317l.8252462.322c1.368829.523376 2.73782.241793 3.281327-1.2679463.301947-.825324.201219-1.549922-.181248-2.0330385.301947.805194-.080599 1.690752-.885793 2.0530893-.805194.3422075-1.751299-.0401037-2.113637-.8452971l-.885793-1.9929356c-.0402593-.1006495-.080519-.2012203-.1006483-.3219995zm4.6904163 1.6103896c.100649.5636358.060547 1.1069859-.140751 1.6504923-.301948.8454538-.885715 1.4293788-1.61039 1.6709368.342207.301948.764778.462751 1.247895.462751 1.046752 0 1.912337-.865507 1.912337-1.932389 0-.8857137-.603897-1.6303627-1.409091-1.8517911zm-12.6818182.0200514c-.80519406.2214283-1.4090908.9660779-1.4090908 1.8517907 0 1.066883.8454556 1.93239 1.9123378 1.93239.4831166 0 .925817-.180934 1.2478946-.462752-.7246748-.261687-1.288312-.825404-1.6103895-1.6909878-.2012986-.5636358-.2414014-1.1070648-.1407521-1.6304409z" stroke-width=".201298"/></g></svg>